<?xml version="1.0" standalone="no"?>
<!DOCTYPE svg PUBLIC "-//W3C//DTD SVG 20010904//EN"
 "http://www.w3.org/TR/2001/REC-SVG-20010904/DTD/svg10.dtd">
<svg version="1.0" xmlns="http://www.w3.org/2000/svg"
 width="260.000000pt" height="260.000000pt" viewBox="0 0 260.000000 260.000000"
 preserveAspectRatio="xMidYMid meet">
<metadata>
Created by potrace 1.11, written by Peter Selinger 2001-2013
</metadata>
<g transform="translate(0.000000,260.000000) scale(0.100000,-0.100000)"
fill="#000000" stroke="none">
<path d="M1160 2574 c-346 -54 -565 -159 -786 -379 -164 -163 -263 -330 -328
-555 -33 -113 -41 -185 -40 -350 0 -206 31 -341 118 -525 38 -81 93 -172 145
-239 9 -11 59 -64 111 -116 105 -105 203 -177 325 -238 125 -62 207 -89 390
-128 64 -13 321 -12 410 2 191 30 405 118 560 229 156 111 319 299 395 455 17
36 36 73 41 84 17 29 58 164 76 246 21 100 25 346 6 448 -15 81 -50 215 -63
241 -4 9 -18 41 -31 71 -109 254 -333 486 -599 620 -90 45 -254 102 -330 115
-25 4 -54 9 -65 12 -26 6 -303 12 -335 7z"/>
</g>
</svg>
